<?xml version="1.0" standalone="no"?>
<!DOCTYPE svg PUBLIC "-//W3C//DTD SVG 20010904//EN"
 "http://www.w3.org/TR/2001/REC-SVG-20010904/DTD/svg10.dtd">
<svg version="1.0" xmlns="http://www.w3.org/2000/svg"
 width="538.000000pt" height="170.000000pt" viewBox="0 0 538.000000 170.000000"
 preserveAspectRatio="xMidYMid meet">

<g transform="translate(0.000000,170.000000) scale(0.100000,-0.100000)"
fill="#000000" stroke="none">
<path d="M0 850 l0 -850 2690 0 2690 0 0 850 0 850 -2690 0 -2690 0 0 -850z
m1660 449 c0 -121 1 -131 18 -124 71 30 136 24 160 -13 14 -22 18 -60 20 -245
2 -124 0 -223 -5 -228 -5 -5 -33 -12 -61 -16 l-52 -6 0 195 c0 215 -5 236 -53
224 l-27 -6 0 -200 0 -199 -44 -6 c-25 -4 -49 -4 -55 0 -13 7 -16 712 -3 731
7 12 36 20 80 23 22 1 22 0 22 -130z m1298 0 l3 -126 49 13 c98 25 150 -16
136 -108 -4 -24 -17 -61 -29 -83 l-23 -40 30 -43 c27 -38 30 -52 34 -136 l4
-93 -38 -6 c-22 -4 -51 -7 -66 -7 l-28 0 0 89 c0 109 -11 144 -43 139 -21 -3
-22 -9 -27 -105 -3 -56 -8 -104 -11 -108 -4 -3 -29 -8 -58 -12 l-51 -6 0 364
c0 200 4 369 8 375 8 13 45 22 82 20 l25 -1 3 -126z m-2428 54 c5 -21 29 -97
53 -170 l43 -132 50 167 49 167 58 3 57 3 0 -350 c0 -217 -4 -352 -10 -356 -5
-3 -33 -9 -61 -12 l-52 -6 6 160 c4 87 9 188 12 224 l6 64 -39 -115 c-48 -145
-57 -162 -85 -158 -27 4 -38 26 -82 174 -20 65 -33 106 -30 89 3 -16 8 -118
12 -226 l6 -196 -33 -6 c-18 -4 -43 -7 -56 -7 l-24 0 0 353 c0 195 3 357 7
360 3 4 28 7 54 7 47 0 48 -1 59 -37z m2228 25 c20 -20 15 -105 -8 -128 -24
-24 -38 -25 -68 -4 -28 19 -31 97 -5 126 18 20 63 24 81 6z m-1622 -199 c45
-22 59 -66 58 -177 0 -58 -5 -107 -11 -113 -6 -6 -47 -13 -92 -16 -74 -5 -81
-8 -81 -27 0 -12 7 -32 16 -45 17 -24 19 -24 134 -9 23 3 25 -1 28 -38 4 -51
-18 -72 -87 -83 -73 -12 -135 3 -165 40 -38 45 -49 100 -44 229 6 164 39 228
131 250 35 9 81 4 113 -11z m325 11 c26 0 49 -39 42 -73 -5 -25 -9 -27 -48
-25 -52 1 -63 -5 -81 -48 -19 -45 -18 -194 1 -240 14 -35 15 -35 67 -33 l53 3
3 -36 c4 -49 -28 -71 -101 -71 -74 1 -103 15 -129 65 -21 39 -23 57 -23 178 0
125 2 139 27 192 14 31 37 62 50 69 28 15 88 28 106 23 8 -2 22 -4 33 -4z
m706 -16 c13 -8 25 -24 28 -37 3 -12 4 -116 3 -232 l-3 -210 -29 -14 c-36 -17
-164 -18 -194 -2 -42 22 -62 69 -62 144 0 123 40 173 130 165 l50 -5 0 43 c0
56 -14 63 -97 52 -73 -10 -83 -5 -83 44 0 34 22 56 63 62 18 3 43 7 57 10 39
6 113 -5 137 -20z m353 2 c45 -21 50 -45 50 -278 l0 -217 -45 -7 c-78 -11 -75
-20 -75 210 0 133 -4 207 -11 211 -5 4 -21 4 -35 1 l-24 -6 0 -204 0 -203 -31
-7 c-17 -3 -42 -6 -55 -6 l-24 0 0 249 0 250 53 10 c28 6 61 13 72 15 28 5 96
-4 125 -18z m250 -240 l0 -253 -31 -7 c-17 -3 -42 -6 -55 -6 l-24 0 2 252 3
253 30 6 c17 4 40 7 53 8 l22 1 0 -254z m1238 24 l44 -60 335 0 335 0 41 35
c72 62 158 68 219 17 32 -28 67 -93 68 -127 0 -72 -55 -155 -116 -175 -44 -15
-110 0 -163 35 l-36 25 -341 0 -341 0 -43 -46 -42 -46 -72 4 c-61 3 -81 9
-141 44 -100 57 -94 68 38 72 l107 3 0 63 0 64 -104 4 c-58 2 -108 7 -113 11
-14 15 14 41 97 89 71 40 92 48 135 48 50 -1 50 -1 93 -60z m-3513 -538 l8
-37 14 43 c10 29 19 40 25 34 13 -13 38 -132 27 -132 -4 0 -11 17 -15 38 -11
61 -21 71 -29 29 -9 -45 -24 -44 -40 4 l-12 34 -12 -52 c-7 -29 -17 -53 -21
-53 -5 0 -2 26 6 58 7 31 13 62 14 69 0 27 29 -1 35 -35z m583 -5 l27 16 -22
-23 -22 -23 20 -29 c21 -29 11 -40 -12 -12 -12 14 -14 14 -20 -3 -4 -10 -7 16
-7 57 1 41 3 58 5 38 l4 -38 27 17z m-305 6 c28 10 47 -13 46 -56 -1 -23 -3
-33 -6 -22 -2 11 -6 30 -9 43 -8 40 -34 27 -34 -18 0 -22 -4 -40 -10 -40 -6 0
-9 28 -9 68 1 37 4 57 6 44 3 -13 10 -21 16 -19z m247 27 c0 -5 -4 -10 -10
-10 -5 0 -10 5 -10 10 0 6 5 10 10 10 6 0 10 -4 10 -10z m790 0 c0 -5 -2 -10
-4 -10 -3 0 -8 5 -11 10 -3 6 -1 10 4 10 6 0 11 -4 11 -10z m-432 -31 c15 -1
15 -2 0 -6 -30 -8 -20 -73 11 -73 14 0 14 -2 1 -10 -22 -14 -40 7 -40 46 0 20
-5 34 -12 35 -10 0 -10 2 0 6 6 2 13 12 13 21 1 15 2 15 6 0 2 -10 12 -19 21
-19z m-729 -3 c12 -15 2 -27 -32 -39 -26 -10 -16 -31 19 -38 l29 -7 -33 -1
c-25 -1 -35 4 -41 22 -19 49 27 100 58 63z m81 5 c0 -5 -9 -11 -21 -14 -16 -4
-20 -12 -17 -39 2 -28 7 -33 26 -30 12 2 22 -2 22 -8 0 -6 -12 -10 -27 -8 -38
4 -53 46 -29 82 16 25 46 36 46 17z m164 -7 c3 -9 6 -33 6 -53 0 -35 -2 -38
-26 -35 -15 1 -30 8 -35 15 -9 15 6 48 27 56 7 3 12 9 9 14 -3 4 -13 5 -22 2
-11 -4 -14 -3 -9 5 10 17 43 15 50 -4z m79 7 c4 0 6 -22 6 -48 l-2 -48 -6 40
c-4 26 -12 41 -23 43 -13 3 -18 -6 -21 -40 l-4 -43 -1 51 c-2 54 -1 54 51 45z
m257 -21 c11 -45 1 -77 -23 -74 -12 1 -25 3 -29 3 -17 2 -7 51 12 61 23 12 27
35 5 26 -8 -3 -15 -1 -15 5 0 22 44 4 50 -21z m36 -38 c8 -39 38 -23 45 23 6
40 6 40 8 -11 1 -50 0 -51 -25 -48 -34 3 -44 19 -42 69 0 25 2 30 5 15 2 -14
6 -35 9 -48z m194 53 c17 -21 16 -64 -3 -82 -34 -34 -68 17 -48 70 12 30 32
35 51 12z m74 6 c4 -5 -3 -7 -14 -4 -26 7 -27 -23 -1 -32 26 -8 32 -29 16 -51
-10 -15 -17 -16 -36 -7 l-24 12 28 0 c34 1 34 10 1 36 -17 14 -23 26 -19 38 7
18 40 23 49 8z m86 -6 c15 -18 5 -31 -25 -37 -31 -5 -24 -32 10 -39 l30 -7
-31 -1 c-21 -1 -34 5 -38 15 -22 57 20 110 54 69z m117 -26 c8 -40 19 -36 29
9 4 20 9 30 11 20 2 -9 -1 -35 -7 -58 -9 -34 -14 -39 -25 -30 -8 7 -17 27 -21
45 -5 27 -10 32 -32 31 -24 -1 -27 -5 -28 -38 -1 -60 -14 -57 -14 3 l0 55 40
-4 c36 -4 42 -8 47 -33z m148 31 c3 -5 -1 -10 -10 -10 -23 0 -41 -45 -26 -64
7 -8 19 -12 27 -9 8 3 14 0 14 -6 0 -17 -47 -13 -54 5 -19 50 24 125 49 84z
m74 1 c19 -12 6 -41 -18 -41 -24 0 -32 -11 -21 -29 5 -8 18 -12 34 -9 14 3 26
1 26 -3 0 -16 -68 -10 -74 7 -21 55 11 101 53 75z m-939 -52 c0 -21 -4 -39
-10 -39 -5 0 -10 21 -10 46 0 27 4 43 10 39 6 -3 10 -24 10 -46z m790 6 c0
-25 -4 -45 -10 -45 -11 0 -13 33 -4 68 10 34 14 27 14 -23z"/>
<path d="M2973 1083 c-8 -3 -13 -25 -13 -59 0 -40 3 -52 13 -48 20 7 47 59 47
88 0 26 -16 32 -47 19z"/>
<path d="M741 1134 c0 -11 3 -14 6 -6 3 7 2 16 -1 19 -3 4 -6 -2 -5 -13z"/>
<path d="M1034 1086 c-11 -9 -19 -31 -22 -70 -4 -55 -4 -56 21 -56 48 0 64 32
51 98 -7 36 -25 46 -50 28z"/>
<path d="M2041 896 c-7 -9 -11 -37 -9 -73 3 -54 5 -58 28 -58 24 0 25 2 25 70
0 56 -3 70 -16 73 -9 1 -21 -4 -28 -12z"/>
<path d="M4857 879 c-9 -5 -24 -23 -32 -38 -13 -27 -13 -31 8 -62 27 -41 73
-51 100 -21 58 64 -4 163 -76 121z"/>
<path d="M605 400 c-8 -13 5 -13 25 0 13 8 13 10 -2 10 -9 0 -20 -4 -23 -10z"/>
<path d="M853 365 c-3 -9 -3 -18 0 -22 10 -10 37 6 37 22 0 20 -29 20 -37 0z"/>
<path d="M1183 365 c-3 -9 -3 -18 0 -22 10 -10 37 6 37 22 0 20 -29 20 -37 0z"/>
<path d="M1424 407 c-9 -25 0 -62 16 -62 21 0 25 49 6 64 -13 11 -17 11 -22
-2z"/>
<path d="M1580 400 c0 -5 7 -7 15 -4 8 4 15 8 15 10 0 2 -7 4 -15 4 -8 0 -15
-4 -15 -10z"/>
<path d="M1920 400 c0 -5 7 -7 15 -4 8 4 15 8 15 10 0 2 -7 4 -15 4 -8 0 -15
-4 -15 -10z"/>
</g>
</svg>
